<?xml version="1.0" encoding="UTF-8" standalone="no"?>
<!-- Created with Inkscape (http://www.inkscape.org/) -->

<svg
   width="155.18349mm"
   height="92.912956mm"
   viewBox="0 0 155.18349 92.912956"
   version="1.1"
   id="svg5"
   inkscape:export-filename="ExplanationRadiopropa.png"
   inkscape:export-xdpi="96"
   inkscape:export-ydpi="96"
   inkscape:version="1.2.1 (9c6d41e410, 2022-07-14, custom)"
   sodipodi:docname="PrincipleNormIllu.svg"
   xmlns:inkscape="http://www.inkscape.org/namespaces/inkscape"
   xmlns:sodipodi="http://sodipodi.sourceforge.net/DTD/sodipodi-0.dtd"
   xmlns="http://www.w3.org/2000/svg"
   xmlns:svg="http://www.w3.org/2000/svg">
  <sodipodi:namedview
     id="namedview7"
     pagecolor="#ffffff"
     bordercolor="#000000"
     borderopacity="0.25"
     inkscape:showpageshadow="2"
     inkscape:pageopacity="0.0"
     inkscape:pagecheckerboard="0"
     inkscape:deskcolor="#d1d1d1"
     inkscape:document-units="mm"
     showgrid="false"
     inkscape:zoom="1.5518659"
     inkscape:cx="278.05238"
     inkscape:cy="270.96414"
     inkscape:window-width="980"
     inkscape:window-height="1056"
     inkscape:window-x="1932"
     inkscape:window-y="12"
     inkscape:window-maximized="1"
     inkscape:current-layer="layer1" />
  <defs
     id="defs2" />
  <g
     inkscape:label="Layer 1"
     inkscape:groupmode="layer"
     id="layer1"
     transform="translate(-17.640411,-12.676755)">
    <path
       style="fill:none;fill-opacity:0;stroke:#000000;stroke-width:0.529167;stroke-dasharray:none"
       d="m 27.830708,98.572644 2.005444,3.259346"
       id="path1342" />
    <path
       style="fill:#ff0000;fill-opacity:0;stroke:#000000;stroke-width:0.529167;stroke-dasharray:none"
       d="m 30.623488,98.500685 -3.499463,3.313085"
       id="path1344" />
    <path
       style="fill:#000000;fill-opacity:0;stroke:#000000;stroke-width:0.3"
       d="M 29.293939,100.59942 54.262178,70.073903 76.060994,43.58138 l 11.68172,-12.813026 11.448994,-10.11678 13.707322,-5.994813 14.45401,-1.548284 9.77164,4.868062 9.13654,8.550727 0.16029,0.181652 8.83938,14.452745 2.82662,6.781238 1.58549,4.191881 0.89862,2.386642 0.89709,2.742147 1.06188,2.718771 0.79872,2.706121 0.70674,1.93481 0.74545,2.468627 0.33977,0.977607 0.38728,1.262857 0.52567,1.846062 -0.01,0.58988"
       id="path5813" />
    <path
       style="fill:#000000;fill-opacity:1;stroke:#000000;stroke-width:0.3"
       id="path6233"
       sodipodi:type="arc"
       sodipodi:cx="40.545238"
       sodipodi:cy="86.7323"
       sodipodi:rx="0.38019758"
       sodipodi:ry="0.31209743"
       sodipodi:start="2.7408681"
       sodipodi:end="2.7366805"
       sodipodi:open="true"
       sodipodi:arc-type="arc"
       d="m 40.195161,86.854045 a 0.38019758,0.31209743 0 0 1 0.201401,-0.40899 0.38019758,0.31209743 0 0 1 0.498443,0.164899 0.38019758,0.31209743 0 0 1 -0.200358,0.409335 0.38019758,0.31209743 0 0 1 -0.498862,-0.164042" />
    <path
       style="fill:#000000;fill-opacity:1;stroke:#000000;stroke-width:0.3"
       id="path6233-3"
       sodipodi:type="arc"
       sodipodi:cx="55.773808"
       sodipodi:cy="68.56147"
       sodipodi:rx="0.38019758"
       sodipodi:ry="0.31209743"
       sodipodi:start="2.7408681"
       sodipodi:end="2.7366805"
       sodipodi:open="true"
       sodipodi:arc-type="arc"
       d="m 55.42373,68.683215 a 0.38019758,0.31209743 0 0 1 0.201402,-0.40899 0.38019758,0.31209743 0 0 1 0.498442,0.164899 0.38019758,0.31209743 0 0 1 -0.200358,0.409335 0.38019758,0.31209743 0 0 1 -0.498862,-0.164042" />
    <path
       style="fill:#000000;fill-opacity:1;stroke:#000000;stroke-width:0.3"
       id="path6233-6"
       sodipodi:type="arc"
       sodipodi:cx="74.65979"
       sodipodi:cy="45.280304"
       sodipodi:rx="0.38019758"
       sodipodi:ry="0.31209743"
       sodipodi:start="2.7408681"
       sodipodi:end="2.7366805"
       sodipodi:open="true"
       sodipodi:arc-type="arc"
       d="m 74.309712,45.402049 a 0.38019758,0.31209743 0 0 1 0.201402,-0.40899 0.38019758,0.31209743 0 0 1 0.498443,0.164899 0.38019758,0.31209743 0 0 1 -0.200359,0.409335 0.38019758,0.31209743 0 0 1 -0.498862,-0.164042" />
    <path
       style="fill:#000000;fill-opacity:1;stroke:#000000;stroke-width:0.3"
       id="path6233-35"
       sodipodi:type="arc"
       sodipodi:cx="113.13783"
       sodipodi:cy="14.602215"
       sodipodi:rx="0.38019758"
       sodipodi:ry="0.31209743"
       sodipodi:start="2.7408681"
       sodipodi:end="2.7366805"
       sodipodi:open="true"
       sodipodi:arc-type="arc"
       d="m 112.78775,14.72396 a 0.38019758,0.31209743 0 0 1 0.20141,-0.40899 0.38019758,0.31209743 0 0 1 0.49844,0.164899 0.38019758,0.31209743 0 0 1 -0.20036,0.409335 0.38019758,0.31209743 0 0 1 -0.49886,-0.164042" />
    <path
       style="fill:#000000;fill-opacity:1;stroke:#000000;stroke-width:0.3"
       id="path6233-62"
       sodipodi:type="arc"
       sodipodi:cx="127.43634"
       sodipodi:cy="13.140459"
       sodipodi:rx="0.38019758"
       sodipodi:ry="0.31209743"
       sodipodi:start="2.7408681"
       sodipodi:end="2.7366805"
       sodipodi:open="true"
       sodipodi:arc-type="arc"
       d="m 127.08626,13.262204 a 0.38019758,0.31209743 0 0 1 0.2014,-0.40899 0.38019758,0.31209743 0 0 1 0.49845,0.164899 0.38019758,0.31209743 0 0 1 -0.20036,0.409335 0.38019758,0.31209743 0 0 1 -0.49886,-0.164042" />
    <path
       style="fill:#000000;fill-opacity:1;stroke:#000000;stroke-width:0.3"
       id="path6233-9"
       sodipodi:type="arc"
       sodipodi:cx="137.30742"
       sodipodi:cy="18.041109"
       sodipodi:rx="0.38019758"
       sodipodi:ry="0.31209743"
       sodipodi:start="2.7408681"
       sodipodi:end="2.7366805"
       sodipodi:open="true"
       sodipodi:arc-type="arc"
       d="m 136.95734,18.162854 a 0.38019758,0.31209743 0 0 1 0.2014,-0.40899 0.38019758,0.31209743 0 0 1 0.49845,0.164899 0.38019758,0.31209743 0 0 1 -0.20036,0.409335 0.38019758,0.31209743 0 0 1 -0.49886,-0.164042" />
    <path
       style="fill:#000000;fill-opacity:1;stroke:#000000;stroke-width:0.3"
       id="path6233-1"
       sodipodi:type="arc"
       sodipodi:cx="146.42072"
       sodipodi:cy="26.54023"
       sodipodi:rx="0.38019758"
       sodipodi:ry="0.31209743"
       sodipodi:start="2.7408681"
       sodipodi:end="2.7366805"
       sodipodi:open="true"
       sodipodi:arc-type="arc"
       d="m 146.07064,26.661975 a 0.38019758,0.31209743 0 0 1 0.2014,-0.40899 0.38019758,0.31209743 0 0 1 0.49844,0.164899 0.38019758,0.31209743 0 0 1 -0.20036,0.409335 0.38019758,0.31209743 0 0 1 -0.49886,-0.164042" />
    <path
       style="fill:#000000;fill-opacity:1;stroke:#000000;stroke-width:0.3"
       id="path6233-2"
       sodipodi:type="arc"
       sodipodi:cx="155.25989"
       sodipodi:cy="41.139023"
       sodipodi:rx="0.38019758"
       sodipodi:ry="0.31209743"
       sodipodi:start="2.7408681"
       sodipodi:end="2.7366805"
       sodipodi:open="true"
       sodipodi:arc-type="arc"
       d="m 154.90981,41.260768 a 0.38019758,0.31209743 0 0 1 0.2014,-0.40899 0.38019758,0.31209743 0 0 1 0.49844,0.164899 0.38019758,0.31209743 0 0 1 -0.20035,0.409335 0.38019758,0.31209743 0 0 1 -0.49887,-0.164042" />
    <path
       style="fill:#000000;fill-opacity:1;stroke:#000000;stroke-width:0.3"
       id="path6233-70"
       sodipodi:type="arc"
       sodipodi:cx="158.04298"
       sodipodi:cy="47.829113"
       sodipodi:rx="0.38019758"
       sodipodi:ry="0.31209743"
       sodipodi:start="2.7408681"
       sodipodi:end="2.7366805"
       sodipodi:open="true"
       sodipodi:arc-type="arc"
       d="m 157.69291,47.950858 a 0.38019758,0.31209743 0 0 1 0.2014,-0.40899 0.38019758,0.31209743 0 0 1 0.49844,0.164899 0.38019758,0.31209743 0 0 1 -0.20036,0.409335 0.38019758,0.31209743 0 0 1 -0.49886,-0.164042" />
    <path
       style="fill:#000000;fill-opacity:1;stroke:#000000;stroke-width:0.3"
       id="path6233-93"
       sodipodi:type="arc"
       sodipodi:cx="159.78815"
       sodipodi:cy="52.249222"
       sodipodi:rx="0.38019758"
       sodipodi:ry="0.31209743"
       sodipodi:start="2.7408681"
       sodipodi:end="2.7366805"
       sodipodi:open="true"
       sodipodi:arc-type="arc"
       d="m 159.43807,52.370967 a 0.38019758,0.31209743 0 0 1 0.2014,-0.40899 0.38019758,0.31209743 0 0 1 0.49844,0.164899 0.38019758,0.31209743 0 0 1 -0.20035,0.409335 0.38019758,0.31209743 0 0 1 -0.49887,-0.164042" />
    <path
       style="fill:#000000;fill-opacity:1;stroke:#000000;stroke-width:0.3"
       id="path6233-60"
       sodipodi:type="arc"
       sodipodi:cx="160.8389"
       sodipodi:cy="55.639988"
       sodipodi:rx="0.38019758"
       sodipodi:ry="0.31209743"
       sodipodi:start="2.7408681"
       sodipodi:end="2.7366805"
       sodipodi:open="true"
       sodipodi:arc-type="arc"
       d="m 160.48882,55.761733 a 0.38019758,0.31209743 0 0 1 0.2014,-0.40899 0.38019758,0.31209743 0 0 1 0.49844,0.164899 0.38019758,0.31209743 0 0 1 -0.20035,0.409335 0.38019758,0.31209743 0 0 1 -0.49887,-0.164042" />
    <path
       style="fill:#000000;fill-opacity:1;stroke:#000000;stroke-width:0.3"
       id="path6233-626"
       sodipodi:type="arc"
       sodipodi:cx="162.04219"
       sodipodi:cy="58.492634"
       sodipodi:rx="0.38019758"
       sodipodi:ry="0.31209743"
       sodipodi:start="2.7408681"
       sodipodi:end="2.7366805"
       sodipodi:open="true"
       sodipodi:arc-type="arc"
       d="m 161.69211,58.614379 a 0.38019758,0.31209743 0 0 1 0.2014,-0.40899 0.38019758,0.31209743 0 0 1 0.49845,0.164899 0.38019758,0.31209743 0 0 1 -0.20036,0.409335 0.38019758,0.31209743 0 0 1 -0.49886,-0.164042" />
    <path
       style="fill:#000000;fill-opacity:1;stroke:#000000;stroke-width:0.3"
       id="path6233-18"
       sodipodi:type="arc"
       sodipodi:cx="163.03247"
       sodipodi:cy="61.565323"
       sodipodi:rx="0.38019758"
       sodipodi:ry="0.31209743"
       sodipodi:start="2.7408681"
       sodipodi:end="2.7366805"
       sodipodi:open="true"
       sodipodi:arc-type="arc"
       d="m 162.68239,61.687068 a 0.38019758,0.31209743 0 0 1 0.2014,-0.40899 0.38019758,0.31209743 0 0 1 0.49845,0.164899 0.38019758,0.31209743 0 0 1 -0.20036,0.409335 0.38019758,0.31209743 0 0 1 -0.49886,-0.164042" />
    <path
       style="fill:#000000;fill-opacity:1;stroke:#000000;stroke-width:0.3"
       id="path6233-79"
       sodipodi:type="arc"
       sodipodi:cx="163.66165"
       sodipodi:cy="63.805302"
       sodipodi:rx="0.38019758"
       sodipodi:ry="0.31209743"
       sodipodi:start="2.7408681"
       sodipodi:end="2.7366805"
       sodipodi:open="true"
       sodipodi:arc-type="arc"
       d="m 163.31157,63.927046 a 0.38019758,0.31209743 0 0 1 0.20141,-0.408989 0.38019758,0.31209743 0 0 1 0.49844,0.164899 0.38019758,0.31209743 0 0 1 -0.20036,0.409335 0.38019758,0.31209743 0 0 1 -0.49886,-0.164042" />
    <path
       style="fill:#000000;fill-opacity:1;stroke:#000000;stroke-width:0.3"
       id="path6233-20"
       sodipodi:type="arc"
       sodipodi:cx="164.31436"
       sodipodi:cy="65.603813"
       sodipodi:rx="0.38019758"
       sodipodi:ry="0.31209743"
       sodipodi:start="2.7408681"
       sodipodi:end="2.7366805"
       sodipodi:open="true"
       sodipodi:arc-type="arc"
       d="m 163.96428,65.725558 a 0.38019758,0.31209743 0 0 1 0.20141,-0.40899 0.38019758,0.31209743 0 0 1 0.49844,0.164899 0.38019758,0.31209743 0 0 1 -0.20036,0.409335 0.38019758,0.31209743 0 0 1 -0.49886,-0.164042" />
    <path
       style="fill:#000000;fill-opacity:1;stroke:#000000;stroke-width:0.3"
       id="path6233-23"
       sodipodi:type="arc"
       sodipodi:cx="164.8808"
       sodipodi:cy="67.424675"
       sodipodi:rx="0.38019758"
       sodipodi:ry="0.31209743"
       sodipodi:start="2.7408681"
       sodipodi:end="2.7366805"
       sodipodi:open="true"
       sodipodi:arc-type="arc"
       d="m 164.53072,67.54642 a 0.38019758,0.31209743 0 0 1 0.2014,-0.40899 0.38019758,0.31209743 0 0 1 0.49844,0.164899 0.38019758,0.31209743 0 0 1 -0.20035,0.409335 0.38019758,0.31209743 0 0 1 -0.49887,-0.164042" />
    <path
       style="fill:#000000;fill-opacity:1;stroke:#000000;stroke-width:0.3"
       id="path6233-75"
       sodipodi:type="arc"
       sodipodi:cx="165.4411"
       sodipodi:cy="68.79924"
       sodipodi:rx="0.38019758"
       sodipodi:ry="0.31209743"
       sodipodi:start="2.7408681"
       sodipodi:end="2.7366805"
       sodipodi:open="true"
       sodipodi:arc-type="arc"
       d="m 165.09102,68.920985 a 0.38019758,0.31209743 0 0 1 0.20141,-0.40899 0.38019758,0.31209743 0 0 1 0.49844,0.164899 0.38019758,0.31209743 0 0 1 -0.20036,0.409335 0.38019758,0.31209743 0 0 1 -0.49886,-0.164042" />
    <path
       style="fill:#000000;fill-opacity:1;stroke:#000000;stroke-width:0.3"
       id="path6233-7"
       sodipodi:type="arc"
       sodipodi:cx="99.228386"
       sodipodi:cy="20.544525"
       sodipodi:rx="0.38019758"
       sodipodi:ry="0.31209743"
       sodipodi:start="2.7408681"
       sodipodi:end="2.7366805"
       sodipodi:open="true"
       sodipodi:arc-type="arc"
       d="m 98.878308,20.66627 a 0.38019758,0.31209743 0 0 1 0.201402,-0.40899 0.38019758,0.31209743 0 0 1 0.498442,0.164899 0.38019758,0.31209743 0 0 1 -0.200358,0.409335 0.38019758,0.31209743 0 0 1 -0.498862,-0.164042" />
    <path
       style="fill:#000000;fill-opacity:1;stroke:#000000;stroke-width:0.3"
       id="path6233-5"
       sodipodi:type="arc"
       sodipodi:cx="87.862404"
       sodipodi:cy="30.536461"
       sodipodi:rx="0.38019758"
       sodipodi:ry="0.31209743"
       sodipodi:start="2.7408681"
       sodipodi:end="2.7366805"
       sodipodi:open="true"
       sodipodi:arc-type="arc"
       d="m 87.512326,30.658206 a 0.38019758,0.31209743 0 0 1 0.201402,-0.40899 0.38019758,0.31209743 0 0 1 0.498442,0.164899 0.38019758,0.31209743 0 0 1 -0.200358,0.409335 0.38019758,0.31209743 0 0 1 -0.498862,-0.164042" />
    <ellipse
       style="fill:#0000ff;stroke-width:0.264583"
       id="path392"
       cx="166.26225"
       cy="71.870522"
       rx="1.1726904"
       ry="1.4060344" />
    <text
       xml:space="preserve"
       style="font-size:3.175px;fill:#000000;stroke-width:0.264583"
       x="159.92386"
       y="76.747368"
       id="text450"><tspan
         sodipodi:role="line"
         id="tspan448"
         style="fill:#000000;stroke-width:0.264583"
         x="159.92386"
         y="76.747368">Detector</tspan></text>
    <text
       xml:space="preserve"
       style="font-size:3.175px;fill:#000000;stroke-width:0.264583"
       x="17.332436"
       y="105.55795"
       id="text556"><tspan
         sodipodi:role="line"
         id="tspan554"
         style="stroke-width:0.264583"
         x="17.332436"
         y="105.55795">Neutrino Interaction</tspan></text>
  </g>
</svg>
